<?xml version="1.0" encoding="utf-8"?>
<!-- Generator: Adobe Illustrator 21.0.0, SVG Export Plug-In . SVG Version: 6.00 Build 0)  -->
<svg version="1.1" id="레이어_1" xmlns="http://www.w3.org/2000/svg" xmlns:xlink="http://www.w3.org/1999/xlink" x="0px"
	 y="0px" viewBox="0 0 600 600" style="enable-background:new 0 0 600 600;" xml:space="preserve">
<style type="text/css">
	.st0{fill:#1FC8A9;}
</style>
<g id="XMLID_1640_">
	<path id="XMLID_1710_" class="st0" d="M290.2,314.2c5.2-0.3,14.2-1.4,14.6-7.9c0-0.7-0.4-1.4-1-1.8c-4-2.5-9.3,0.7-13.6,1.1
		c-6.2,0.5-11.2-2-17.1-3.3c-3.2-0.7-5.2,3-3.1,5.4C274.8,312.9,283.4,314.5,290.2,314.2z"/>
	<path id="XMLID_1697_" class="st0" d="M345.3,206.2c8.6,1.7,18.6,7.1,27.2,5.7c1.2-0.2,2-1.6,1.2-2.7c-5.4-6.4-16-7.9-23.9-9.7
		c-8.5-2-20.3-5.7-28.6-1.9c-1.2,0.5-1.8,2.4-0.5,3.3C327.8,205.2,337.3,204.6,345.3,206.2z"/>
	<path id="XMLID_1654_" class="st0" d="M211.7,212c8.7,1.4,18.6-4,27.2-5.7c8-1.6,17.5-1,24.5-5.4c1.3-0.8,0.7-2.7-0.5-3.3
		c-8.4-3.8-20.1,0-28.6,1.9c-7.9,1.8-18.5,3.3-23.9,9.7C209.6,210.3,210.5,211.8,211.7,212z"/>
	<path id="XMLID_1653_" class="st0" d="M323.4,344.8c2.9-0.6,2.5-5.2-0.5-5.2c-20.1-0.4-40.7,1.1-60.9,1.6c-2.4,0.1-2.5,3.3-0.2,3.7
		C281.3,348.2,304.1,349,323.4,344.8z"/>
	<path id="XMLID_3790_" class="st0" d="M474.5,527.8c-19.6-11.9-43.5-22.3-66.7-28.3c-3.6-1.3-7.2-2.5-11-3.3
		c-1-0.2-6.8-1.5-9.1-2.2c-17.3-5.4-19-17.9-19.5-18.2c-0.3-1.3-0.6-3.4-0.9-6.1c0.2,0,0.4,0.1,0.6,0.1c0.3,0,0.5,0,0.7,0
		c0.4,0.3,0.9,0.4,1.5,0.4c9.1-0.3,18.3-0.2,27.4-0.8c4.6-0.3,9.4-0.6,12.9-4.1c4.4-4.4,4.4-12.3,5.3-17.9c1-5.6,1-16.9,3.6-24.1
		c1.4,4.5,3.5,15,3.5,15c0,0,0,0.1,0,0.1c-0.8,5.7-0.1,19,0.8,19.4c0.6,2.7,1.6,5,3.4,6.4c5.5,4.1,21.3-5.2,21.3-6.3
		c2.4-89.4,4.1-181.5-10.2-270.1C428,124.7,394.7,54.7,325.4,43.2c-1.5-3.6-12.4-5-13.9-4.7C270.1,45.4,230.4,61,196,85.2
		c-32.2,22.7-51,50.9-60.9,88.8C111,266,120.7,362.4,105.3,455.6c-0.3,1.8,0.8,3.9,2.9,3.8c9.9-0.4,21.2,0.6,31-1.4
		c2.6-0.5,4.9-0.8,6.9-3c0.9-1,1.5-2.4,1.9-3.9c0.6,2.6,1.5,4.6,4.3,6.6c6.1,4.2,17.8,3.4,24.6,4.2c12.9,1.5,25.8,2.9,38.7,4.4
		c-8.3,28.7-33.1,34.5-33,35.8c-17.4,7.2-34.4,17.7-50.2,28.7c-0.4,3.8-1.2,7.6-2.4,11.2c10.6-7.5,22-13.9,33.2-20.5
		c31.7,32.7,90.1,38.4,133,36c25.1-1.4,49.9-6.4,73.5-15.1c15.5-5.7,40.8-12.9,45.6-31c17.9,6.5,35.9,13,52.5,22.7
		c7.6,4.4,14.2,9.7,20,15.5c1.4-1.4,2.8-2.8,4.2-4.2c0.8-0.8,1.7-1.3,2.5-1.6C488.8,537.8,482.1,532.4,474.5,527.8z M181.6,204.9
		c-0.1-5.5,0.1-6.2,5.5-8.4c3.4-1.4,6.9-2.4,10.4-3.3c0.5-0.1,0.9-0.4,1.3-0.7c16.9-4.9,34-7.3,51.6-8c8.2-0.3,16.4-0.3,24.7-0.1
		c6.5,0.1,16.1,2.4,22.4,0.6c7.1-2.1,7.3-8.3,9.1-14.9c3.8-14.6,7.7-29.1,11.5-43.7c3.5,12,4.8,24.2,6.3,36.8
		c0.7,5.8-0.1,18,4.8,21.8c4.4,3.4,11.9,1.3,16.8,1.5c16.9,0.6,45.3,12,45.7,17.8c0.5,8.8,0.6,17.6,0.9,26.4c0,0,0,0,0,0.1
		c0.2,18,0.4,36.4,0.4,44.9c-0.1,24.5-2.2,45.9-16.5,66.5c-12,17.3-27.9,32.5-44.9,44.8c-7.5,5.4-15.3,10.3-23.4,14.7
		c-6.3,3.4-16.5,7.8-23.8,6.8c-4.5-0.6-11.6-5.9-15.4-8.3c-18.5-11.4-41.9-21.8-54.7-39.9c-15.5-21.8-21.8-57.5-22-58.1
		c-4.4-18.4-8.5-56.4-8.5-57c0-2.5-0.2-6.6-0.6-11.5C184.1,233.1,181.7,213.6,181.6,204.9z M400.4,271.8c0-7.7,0-50.6,1.4-52.5
		c0.1,0,0.2,0,0.3,0c1.6-0.1,2.9,0.1,4.1,0.6c2.9,2.5,5.3,7.1,6.8,10.4c1.2,6.3,0.5,13.8,0.2,17.8c-0.4,6-1.5,11.8-4.1,16.8
		C406.7,267.4,403.8,269.6,400.4,271.8z M180.7,272.1c-3.2-0.8-5.9-1.4-8.3-3.3c-1.3-1.3-2.5-2.7-3.6-4.2c-2-3.4-3.3-7.8-4.1-11.6
		c-0.6-2.6-1-6-1.2-9.4c-2.2-12.3,4-18.3,12-17.4c0.1,0,0.2,0,0.4,0c0.2,1.3,1.5,17.2,1.6,19.5C177.4,245.6,179.3,263.3,180.7,272.1
		z M189.9,506c38.8-11.8,39.6-73.2,37.3-124.4c13.5,10.6,29.8,19.1,43.6,27.3c17.8,10.6,30.4,5,47.5-4.8
		c11.6-6.7,23.5-14.9,34.4-24.4c-0.7,18.6,2.2,36.7,3.8,54.3c1.6,17.7,6.3,69.7,30.1,70c-3.9,3.6-7.4,6.8-13.5,8.8
		c-4.9,1.6-10.1,2.8-15.1,4c-10.8,2.6-21.8,4.8-32.9,6.1c-102.8,12.5-134.9-16.5-135.5-17C189.7,506,189.8,506,189.9,506z
		 M381.8,531.1c-10.7,4.8-21.8,8.7-33.1,11.8c-20.4,5.7-41.5,8.7-62.6,9c-38,0.6-88.8-5.3-117.3-33.6c5.1-3.1,10-6.3,14.9-9.7
		c0.1,0.2,0.2,0.4,0.4,0.6c2,1.9,7,5.6,7.4,5.9c33.2,20.5,80,19.1,117.4,15.8c20.8-1.8,41.8-5.2,61.8-11c5.8-1.7,11.9-3.5,17-7.1
		c0.8-0.6,5.9-6.2,6.5-6.5c6.2-2.3,10.3,2,14.8,5.1c0,0,0,0,0,0C404.7,521.9,391.3,526.8,381.8,531.1z"/>
	<path id="XMLID_1642_" class="st0" d="M322.1,250.8c4.1-4,9.8-8.7,15.9-11.7c-0.4,1.2-0.7,2.4-0.8,3.6c-1,7.2,5.7,11.5,12.3,10.1
		c5.9-1.3,10.7-6.7,9.6-12.9c1.5,1.4,2.9,3.2,4.1,5.6c1.5,2.8,11.5-5,11.1-8.4c-0.1-0.7-7.2,2.4-8.5,2.7c-3.5-4.8-16.3-9.2-17.8-8.4
		c-10.9,0.5-22.4,8.2-27.9,17.8C319.3,250.5,321.1,251.8,322.1,250.8z"/>
	<path id="XMLID_1641_" class="st0" d="M246.2,239c6,3,11.8,7.7,15.9,11.7c1.1,1.1,2.8-0.3,2.1-1.6c-5.5-9.6-17.1-17.3-27.9-17.8
		c-1.5-0.8-14.3,3.6-17.8,8.4c-1.3-0.4-8.4-3.4-8.5-2.7c-0.4,3.4,9.6,11.1,11.1,8.4c1.2-2.3,2.6-4.2,4.1-5.6
		c-1.2,6.2,3.7,11.6,9.6,12.9c6.6,1.4,13.4-2.9,12.3-10.1C246.9,241.5,246.6,240.3,246.2,239z"/>
</g>
</svg>
